<svg width="963" height="45" viewBox="0 0 963 45" fill="none" xmlns="http://www.w3.org/2000/svg">
<rect x="0.5" y="0.5" width="962" height="44" fill="white"/>
<path d="M23.7524 18.598C23.7524 19.41 23.4724 20.0867 22.9124 20.628C22.3617 21.16 21.5171 21.426 20.3784 21.426H18.5024V25.5H17.2284V15.742H20.3784C21.4797 15.742 22.3151 16.008 22.8844 16.54C23.4631 17.072 23.7524 17.758 23.7524 18.598ZM20.3784 20.376C21.0877 20.376 21.6104 20.222 21.9464 19.914C22.2824 19.606 22.4504 19.1673 22.4504 18.598C22.4504 17.394 21.7597 16.792 20.3784 16.792H18.5024V20.376H20.3784ZM28.6818 25.626C27.9631 25.626 27.3098 25.4627 26.7218 25.136C26.1431 24.8093 25.6858 24.3473 25.3498 23.75C25.0231 23.1433 24.8598 22.4433 24.8598 21.65C24.8598 20.866 25.0278 20.1753 25.3638 19.578C25.7091 18.9713 26.1758 18.5093 26.7638 18.192C27.3518 17.8653 28.0098 17.702 28.7378 17.702C29.4658 17.702 30.1238 17.8653 30.7118 18.192C31.2998 18.5093 31.7618 18.9667 32.0978 19.564C32.4431 20.1613 32.6158 20.8567 32.6158 21.65C32.6158 22.4433 32.4385 23.1433 32.0838 23.75C31.7385 24.3473 31.2671 24.8093 30.6698 25.136C30.0725 25.4627 29.4098 25.626 28.6818 25.626ZM28.6818 24.506C29.1391 24.506 29.5685 24.3987 29.9698 24.184C30.3711 23.9693 30.6931 23.6473 30.9358 23.218C31.1878 22.7887 31.3138 22.266 31.3138 21.65C31.3138 21.034 31.1925 20.5113 30.9498 20.082C30.7071 19.6527 30.3898 19.3353 29.9978 19.13C29.6058 18.9153 29.1811 18.808 28.7238 18.808C28.2571 18.808 27.8278 18.9153 27.4358 19.13C27.0531 19.3353 26.7451 19.6527 26.5118 20.082C26.2785 20.5113 26.1618 21.034 26.1618 21.65C26.1618 22.2753 26.2738 22.8027 26.4978 23.232C26.7311 23.6613 27.0391 23.9833 27.4218 24.198C27.8045 24.4033 28.2245 24.506 28.6818 24.506ZM35.5649 19.242C35.8169 18.8033 36.1902 18.4393 36.6849 18.15C37.1889 17.8513 37.7722 17.702 38.4349 17.702C39.1162 17.702 39.7322 17.8653 40.2829 18.192C40.8429 18.5187 41.2816 18.9807 41.5989 19.578C41.9162 20.166 42.0749 20.852 42.0749 21.636C42.0749 22.4107 41.9162 23.1013 41.5989 23.708C41.2816 24.3147 40.8429 24.786 40.2829 25.122C39.7322 25.458 39.1162 25.626 38.4349 25.626C37.7816 25.626 37.2029 25.4813 36.6989 25.192C36.2042 24.8933 35.8262 24.5247 35.5649 24.086V29.14H34.2909V17.828H35.5649V19.242ZM40.7729 21.636C40.7729 21.0573 40.6562 20.5533 40.4229 20.124C40.1896 19.6947 39.8722 19.368 39.4709 19.144C39.0789 18.92 38.6449 18.808 38.1689 18.808C37.7022 18.808 37.2682 18.9247 36.8669 19.158C36.4749 19.382 36.1576 19.7133 35.9149 20.152C35.6816 20.5813 35.5649 21.0807 35.5649 21.65C35.5649 22.2287 35.6816 22.7373 35.9149 23.176C36.1576 23.6053 36.4749 23.9367 36.8669 24.17C37.2682 24.394 37.7022 24.506 38.1689 24.506C38.6449 24.506 39.0789 24.394 39.4709 24.17C39.8722 23.9367 40.1896 23.6053 40.4229 23.176C40.6562 22.7373 40.7729 22.224 40.7729 21.636ZM45.0258 19.242C45.2778 18.8033 45.6512 18.4393 46.1458 18.15C46.6498 17.8513 47.2332 17.702 47.8958 17.702C48.5772 17.702 49.1932 17.8653 49.7438 18.192C50.3038 18.5187 50.7425 18.9807 51.0598 19.578C51.3772 20.166 51.5358 20.852 51.5358 21.636C51.5358 22.4107 51.3772 23.1013 51.0598 23.708C50.7425 24.3147 50.3038 24.786 49.7438 25.122C49.1932 25.458 48.5772 25.626 47.8958 25.626C47.2425 25.626 46.6638 25.4813 46.1598 25.192C45.6652 24.8933 45.2872 24.5247 45.0258 24.086V29.14H43.7518V17.828H45.0258V19.242ZM50.2338 21.636C50.2338 21.0573 50.1172 20.5533 49.8838 20.124C49.6505 19.6947 49.3332 19.368 48.9318 19.144C48.5398 18.92 48.1058 18.808 47.6298 18.808C47.1632 18.808 46.7292 18.9247 46.3278 19.158C45.9358 19.382 45.6185 19.7133 45.3758 20.152C45.1425 20.5813 45.0258 21.0807 45.0258 21.65C45.0258 22.2287 45.1425 22.7373 45.3758 23.176C45.6185 23.6053 45.9358 23.9367 46.3278 24.17C46.7292 24.394 47.1632 24.506 47.6298 24.506C48.1058 24.506 48.5398 24.394 48.9318 24.17C49.3332 23.9367 49.6505 23.6053 49.8838 23.176C50.1172 22.7373 50.2338 22.224 50.2338 21.636ZM53.8708 16.582C53.6281 16.582 53.4228 16.498 53.2548 16.33C53.0868 16.162 53.0028 15.9567 53.0028 15.714C53.0028 15.4713 53.0868 15.266 53.2548 15.098C53.4228 14.93 53.6281 14.846 53.8708 14.846C54.1041 14.846 54.3001 14.93 54.4588 15.098C54.6268 15.266 54.7108 15.4713 54.7108 15.714C54.7108 15.9567 54.6268 16.162 54.4588 16.33C54.3001 16.498 54.1041 16.582 53.8708 16.582ZM54.4868 17.828V25.5H53.2128V17.828H54.4868ZM60.3961 17.688C61.3294 17.688 62.0854 17.9727 62.6641 18.542C63.2427 19.102 63.5321 19.914 63.5321 20.978V25.5H62.2721V21.16C62.2721 20.3947 62.0807 19.8113 61.6981 19.41C61.3154 18.9993 60.7927 18.794 60.1301 18.794C59.4581 18.794 58.9214 19.004 58.5201 19.424C58.1281 19.844 57.9321 20.4553 57.9321 21.258V25.5H56.6581V17.828H57.9321V18.92C58.1841 18.528 58.5247 18.2247 58.9541 18.01C59.3927 17.7953 59.8734 17.688 60.3961 17.688ZM68.3292 25.626C67.7412 25.626 67.2138 25.528 66.7472 25.332C66.2805 25.1267 65.9118 24.8467 65.6412 24.492C65.3705 24.128 65.2212 23.7127 65.1932 23.246H66.5092C66.5465 23.6287 66.7238 23.9413 67.0412 24.184C67.3678 24.4267 67.7925 24.548 68.3152 24.548C68.8005 24.548 69.1832 24.4407 69.4632 24.226C69.7432 24.0113 69.8832 23.7407 69.8832 23.414C69.8832 23.078 69.7338 22.8307 69.4352 22.672C69.1365 22.504 68.6745 22.3407 68.0492 22.182C67.4798 22.0327 67.0132 21.8833 66.6492 21.734C66.2945 21.5753 65.9865 21.3467 65.7252 21.048C65.4732 20.74 65.3472 20.3387 65.3472 19.844C65.3472 19.452 65.4638 19.0927 65.6972 18.766C65.9305 18.4393 66.2618 18.1827 66.6912 17.996C67.1205 17.8 67.6105 17.702 68.1612 17.702C69.0105 17.702 69.6965 17.9167 70.2192 18.346C70.7418 18.7753 71.0218 19.3633 71.0592 20.11H69.7852C69.7572 19.7087 69.5938 19.3867 69.2952 19.144C69.0058 18.9013 68.6138 18.78 68.1192 18.78C67.6618 18.78 67.2978 18.878 67.0272 19.074C66.7565 19.27 66.6212 19.5267 66.6212 19.844C66.6212 20.096 66.7005 20.306 66.8592 20.474C67.0272 20.6327 67.2325 20.7633 67.4752 20.866C67.7272 20.9593 68.0725 21.0667 68.5112 21.188C69.0618 21.3373 69.5098 21.4867 69.8552 21.636C70.2005 21.776 70.4945 21.9907 70.7372 22.28C70.9892 22.5693 71.1198 22.9473 71.1292 23.414C71.1292 23.834 71.0125 24.212 70.7792 24.548C70.5458 24.884 70.2145 25.15 69.7852 25.346C69.3652 25.5327 68.8798 25.626 68.3292 25.626Z" fill="black"/>
<path d="M96.45 21.45L93 24.9L89.55 21.45L88.5 22.5L93 27L97.5 22.5L96.45 21.45ZM96.45 17.55L93 14.1L89.55 17.55L88.5 16.5L93 12L97.5 16.5L96.45 17.55Z" fill="black"/>
<path d="M133.344 25.5L131.02 21.51H129.48V25.5H128.206V15.742H131.356C132.093 15.742 132.714 15.868 133.218 16.12C133.731 16.372 134.114 16.7127 134.366 17.142C134.618 17.5713 134.744 18.0613 134.744 18.612C134.744 19.284 134.548 19.8767 134.156 20.39C133.773 20.9033 133.195 21.244 132.42 21.412L134.87 25.5H133.344ZM129.48 20.488H131.356C132.047 20.488 132.565 20.32 132.91 19.984C133.255 19.6387 133.428 19.1813 133.428 18.612C133.428 18.0333 133.255 17.5853 132.91 17.268C132.574 16.9507 132.056 16.792 131.356 16.792H129.48V20.488ZM143.724 21.37C143.724 21.6127 143.71 21.8693 143.682 22.14H137.55C137.596 22.896 137.853 23.4887 138.32 23.918C138.796 24.338 139.37 24.548 140.042 24.548C140.592 24.548 141.05 24.422 141.414 24.17C141.787 23.9087 142.048 23.5633 142.198 23.134H143.57C143.364 23.8713 142.954 24.4733 142.338 24.94C141.722 25.3973 140.956 25.626 140.042 25.626C139.314 25.626 138.66 25.4627 138.082 25.136C137.512 24.8093 137.064 24.3473 136.738 23.75C136.411 23.1433 136.248 22.4433 136.248 21.65C136.248 20.8567 136.406 20.1613 136.724 19.564C137.041 18.9667 137.484 18.5093 138.054 18.192C138.632 17.8653 139.295 17.702 140.042 17.702C140.77 17.702 141.414 17.8607 141.974 18.178C142.534 18.4953 142.963 18.934 143.262 19.494C143.57 20.0447 143.724 20.67 143.724 21.37ZM142.408 21.104C142.408 20.6187 142.3 20.2033 142.086 19.858C141.871 19.5033 141.577 19.2373 141.204 19.06C140.84 18.8733 140.434 18.78 139.986 18.78C139.342 18.78 138.791 18.9853 138.334 19.396C137.886 19.8067 137.629 20.376 137.564 21.104H142.408ZM148.569 17.702C149.232 17.702 149.81 17.8467 150.305 18.136C150.809 18.4253 151.182 18.7893 151.425 19.228V17.828H152.713V25.668C152.713 26.368 152.564 26.9887 152.265 27.53C151.966 28.0807 151.537 28.51 150.977 28.818C150.426 29.126 149.782 29.28 149.045 29.28C148.037 29.28 147.197 29.042 146.525 28.566C145.853 28.09 145.456 27.4413 145.335 26.62H146.595C146.735 27.0867 147.024 27.46 147.463 27.74C147.902 28.0293 148.429 28.174 149.045 28.174C149.745 28.174 150.314 27.9547 150.753 27.516C151.201 27.0773 151.425 26.4613 151.425 25.668V24.058C151.173 24.506 150.8 24.8793 150.305 25.178C149.81 25.4767 149.232 25.626 148.569 25.626C147.888 25.626 147.267 25.458 146.707 25.122C146.156 24.786 145.722 24.3147 145.405 23.708C145.088 23.1013 144.929 22.4107 144.929 21.636C144.929 20.852 145.088 20.166 145.405 19.578C145.722 18.9807 146.156 18.5187 146.707 18.192C147.267 17.8653 147.888 17.702 148.569 17.702ZM151.425 21.65C151.425 21.0713 151.308 20.5673 151.075 20.138C150.842 19.7087 150.524 19.382 150.123 19.158C149.731 18.9247 149.297 18.808 148.821 18.808C148.345 18.808 147.911 18.92 147.519 19.144C147.127 19.368 146.814 19.6947 146.581 20.124C146.348 20.5533 146.231 21.0573 146.231 21.636C146.231 22.224 146.348 22.7373 146.581 23.176C146.814 23.6053 147.127 23.9367 147.519 24.17C147.911 24.394 148.345 24.506 148.821 24.506C149.297 24.506 149.731 24.394 150.123 24.17C150.524 23.9367 150.842 23.6053 151.075 23.176C151.308 22.7373 151.425 22.2287 151.425 21.65ZM161.67 17.828V25.5H160.396V24.366C160.153 24.758 159.813 25.066 159.374 25.29C158.945 25.5047 158.469 25.612 157.946 25.612C157.349 25.612 156.812 25.4907 156.336 25.248C155.86 24.996 155.482 24.6227 155.202 24.128C154.931 23.6333 154.796 23.0313 154.796 22.322V17.828H156.056V22.154C156.056 22.91 156.247 23.4933 156.63 23.904C157.013 24.3053 157.535 24.506 158.198 24.506C158.879 24.506 159.416 24.296 159.808 23.876C160.2 23.456 160.396 22.8447 160.396 22.042V17.828H161.67ZM165.095 15.14V25.5H163.821V15.14H165.095ZM166.79 21.636C166.79 20.852 166.949 20.166 167.266 19.578C167.584 18.9807 168.018 18.5187 168.568 18.192C169.128 17.8653 169.749 17.702 170.43 17.702C171.102 17.702 171.686 17.8467 172.18 18.136C172.675 18.4253 173.044 18.7893 173.286 19.228V17.828H174.574V25.5H173.286V24.072C173.034 24.52 172.656 24.8933 172.152 25.192C171.658 25.4813 171.079 25.626 170.416 25.626C169.735 25.626 169.119 25.458 168.568 25.122C168.018 24.786 167.584 24.3147 167.266 23.708C166.949 23.1013 166.79 22.4107 166.79 21.636ZM173.286 21.65C173.286 21.0713 173.17 20.5673 172.936 20.138C172.703 19.7087 172.386 19.382 171.984 19.158C171.592 18.9247 171.158 18.808 170.682 18.808C170.206 18.808 169.772 18.92 169.38 19.144C168.988 19.368 168.676 19.6947 168.442 20.124C168.209 20.5533 168.092 21.0573 168.092 21.636C168.092 22.224 168.209 22.7373 168.442 23.176C168.676 23.6053 168.988 23.9367 169.38 24.17C169.772 24.394 170.206 24.506 170.682 24.506C171.158 24.506 171.592 24.394 171.984 24.17C172.386 23.9367 172.703 23.6053 172.936 23.176C173.17 22.7373 173.286 22.2287 173.286 21.65ZM178.001 19.074C178.225 18.6353 178.543 18.2947 178.953 18.052C179.373 17.8093 179.882 17.688 180.479 17.688V19.004H180.143C178.715 19.004 178.001 19.7787 178.001 21.328V25.5H176.727V17.828H178.001V19.074Z" fill="black"/>
<path d="M206.45 21.45L203 24.9L199.55 21.45L198.5 22.5L203 27L207.5 22.5L206.45 21.45ZM206.45 17.55L203 14.1L199.55 17.55L198.5 16.5L203 12L207.5 16.5L206.45 17.55Z" fill="black"/>
<path d="M243.438 21.85C243.805 21.6264 244.115 21.3201 244.343 20.9555C244.57 20.5909 244.71 20.1781 244.75 19.75C244.757 19.3629 244.688 18.9782 244.546 18.618C244.404 18.2577 244.193 17.9289 243.924 17.6503C243.655 17.3717 243.334 17.1488 242.979 16.9943C242.624 16.8399 242.242 16.7568 241.855 16.75H236.988V27.25H242.238C242.606 27.2461 242.97 27.1696 243.309 27.025C243.648 26.8804 243.955 26.6705 244.212 26.4073C244.47 26.144 244.673 25.8326 244.811 25.4907C244.948 25.1489 245.017 24.7834 245.013 24.415V24.325C245.013 23.8053 244.865 23.2964 244.586 22.858C244.307 22.4195 243.908 22.0699 243.438 21.85ZM238.488 18.25H241.638C241.957 18.2401 242.272 18.3282 242.54 18.5025C242.808 18.6768 243.017 18.9289 243.138 19.225C243.26 19.6208 243.22 20.0489 243.028 20.4157C242.835 20.7825 242.505 21.0582 242.11 21.1825C241.957 21.2275 241.797 21.2502 241.638 21.25H238.488V18.25ZM241.938 25.75H238.488V22.75H241.938C242.257 22.7401 242.572 22.8282 242.84 23.0025C243.108 23.1768 243.317 23.4289 243.438 23.725C243.56 24.1208 243.52 24.5489 243.328 24.9157C243.135 25.2825 242.805 25.5582 242.41 25.6825C242.257 25.7275 242.097 25.7502 241.938 25.75Z" fill="black"/>
<path d="M268.82 19.75H270.32L268.67 27.25H267.17L268.82 19.75ZM270.08 16.75C269.932 16.75 269.787 16.794 269.663 16.8764C269.54 16.9588 269.444 17.0759 269.387 17.213C269.33 17.35 269.315 17.5008 269.344 17.6463C269.373 17.7918 269.445 17.9254 269.55 18.0303C269.654 18.1352 269.788 18.2067 269.934 18.2356C270.079 18.2645 270.23 18.2497 270.367 18.1929C270.504 18.1361 270.621 18.04 270.704 17.9167C270.786 17.7933 270.83 17.6483 270.83 17.5C270.83 17.3011 270.751 17.1103 270.61 16.9697C270.47 16.829 270.279 16.75 270.08 16.75Z" fill="black"/>
<path d="M302.25 28V29.5H291.75V28H302.25ZM300 22.9113C299.975 23.4062 299.828 23.8874 299.572 24.3117C299.316 24.7361 298.959 25.0904 298.533 25.3429C298.106 25.5955 297.624 25.7385 297.129 25.7592C296.634 25.7798 296.141 25.6775 295.695 25.4613C295.181 25.2389 294.745 24.8681 294.443 24.3964C294.141 23.9247 293.987 23.3737 294 22.8138V16.7538H292.5V22.9113C292.525 23.6173 292.717 24.3075 293.058 24.9259C293.4 25.5443 293.882 26.0735 294.467 26.4708C295.051 26.8681 295.721 27.1222 296.421 27.2126C297.122 27.3031 297.834 27.2272 298.5 26.9913C299.386 26.696 300.154 26.1259 300.694 25.3638C301.233 24.6017 301.516 23.6874 301.5 22.7537V16.7538H300V22.9113ZM300 16.75H301.5H300ZM294 16.75H292.5H294Z" fill="black"/>
<path d="M319 22.2029H337V23.7029H332.634C332.871 24.2002 332.991 24.7451 332.984 25.2958C332.998 25.8183 332.886 26.3365 332.657 26.8064C332.428 27.2764 332.089 27.6843 331.669 27.9955C330.658 28.7072 329.438 29.0607 328.203 29C327.3 29.0061 326.406 28.8224 325.579 28.461C324.824 28.1477 324.169 27.6329 323.687 26.9728C323.242 26.3426 323.008 25.5884 323.016 24.8174V24.704H323.304V24.7029H323.645V24.704H325.02V24.8173C325.004 25.1687 325.074 25.5187 325.223 25.8374C325.371 26.1562 325.595 26.4343 325.874 26.648C326.552 27.1303 327.372 27.3697 328.202 27.3273C328.936 27.3752 329.664 27.1835 330.279 26.7811C330.507 26.6126 330.69 26.3908 330.812 26.1351C330.935 25.8794 330.992 25.5977 330.98 25.3145C330.996 25.041 330.946 24.7676 330.833 24.5178C330.721 24.268 330.549 24.0493 330.333 23.8801C330.245 23.8161 330.153 23.7569 330.059 23.7029H319V22.2029ZM332.345 17.0598C331.923 16.4048 331.327 15.8806 330.624 15.5462C329.839 15.1726 328.979 14.9856 328.111 15C326.9 14.948 325.709 15.324 324.747 16.0621C324.334 16.381 324.001 16.7915 323.774 17.2612C323.548 17.7309 323.433 18.247 323.44 18.7685C323.437 19.2628 323.547 19.7513 323.762 20.1964H326.358C326.275 20.1427 326.173 20.0906 326.106 20.0358C325.902 19.8857 325.737 19.6897 325.624 19.4637C325.51 19.2378 325.452 18.9882 325.453 18.7354C325.438 18.4468 325.492 18.1588 325.612 17.8958C325.732 17.6328 325.914 17.4026 326.141 17.2246C326.717 16.8251 327.411 16.6305 328.111 16.6722C328.872 16.6238 329.623 16.8624 330.217 17.3409C330.465 17.5747 330.659 17.8597 330.787 18.1761C330.914 18.4926 330.97 18.8329 330.953 19.1734V19.2869H332.956V19.1734C332.959 18.4248 332.747 17.6911 332.345 17.0598Z" fill="black"/>
<path d="M368.4 23.1205C368.4 23.1205 365.7 26.0455 365.7 27.8455C365.695 28.205 365.761 28.5619 365.894 28.896C366.027 29.23 366.225 29.5345 366.475 29.7922C366.982 30.3126 367.674 30.6106 368.4 30.6205C369.126 30.6304 369.826 30.3516 370.347 29.8452C370.604 29.5945 370.81 29.2955 370.952 28.9652C371.094 28.635 371.17 28.28 371.175 27.9205V27.8455C371.175 26.0455 368.4 23.1205 368.4 23.1205ZM367.297 22.1028L367.799 21.5598L366.075 16.75H364.575L360.825 27.25H362.325L363.397 24.25H365.605C366.114 23.4932 366.679 22.7754 367.294 22.1028H367.297ZM365.325 18.85L366.72 22.75H363.933L365.325 18.85Z" fill="black"/>
<path d="M392.438 22.1806L398.249 18.138L399.134 19.1099L394.563 24.5155L392.438 22.1806ZM390.691 22.489L394.092 26.2264C394.163 26.2962 394.247 26.3502 394.34 26.3849C394.433 26.4196 394.532 26.4343 394.631 26.4278C394.73 26.4214 394.826 26.394 394.914 26.3475C395.001 26.3011 395.078 26.2366 395.139 26.1583L400.727 19.5485C400.838 19.4262 400.901 19.2675 400.904 19.1022C400.907 18.9368 400.85 18.776 400.743 18.6497L398.858 16.5789C398.743 16.4606 398.588 16.3884 398.423 16.3758C398.258 16.3632 398.094 16.411 397.962 16.5104L390.857 21.4535C390.773 21.5067 390.702 21.5769 390.647 21.6598C390.593 21.7426 390.556 21.836 390.541 21.9339C390.525 22.0317 390.53 22.1318 390.556 22.2275C390.582 22.3232 390.628 22.4123 390.691 22.489ZM387.095 26.8958L391.308 27.625L392.418 26.6154L390.146 24.1194L387.095 26.8958Z" fill="black"/>
<path d="M419.875 25H421.375V25.375H420.625V26.125H421.375V26.5H419.875V27.25H422.125V24.25H419.875V25ZM420.625 19.75H421.375V16.75H419.875V17.5H420.625V19.75ZM419.875 21.25H421.225L419.875 22.825V23.5H422.125V22.75H420.775L422.125 21.175V20.5H419.875V21.25ZM423.625 17.5V19H434.125V17.5H423.625ZM423.625 26.5H434.125V25H423.625V26.5ZM423.625 22.75H434.125V21.25H423.625V22.75Z" fill="black"/>
<path d="M449 20.875C448.4 20.875 447.875 21.4 447.875 22C447.875 22.6 448.4 23.125 449 23.125C449.6 23.125 450.125 22.6 450.125 22C450.125 21.4 449.6 20.875 449 20.875ZM449 17.125C448.4 17.125 447.875 17.65 447.875 18.25C447.875 18.85 448.4 19.375 449 19.375C449.6 19.375 450.125 18.85 450.125 18.25C450.125 17.65 449.6 17.125 449 17.125ZM449 24.625C448.4 24.625 447.875 25.15 447.875 25.75C447.875 26.35 448.4 26.875 449 26.875C449.6 26.875 450.125 26.35 450.125 25.75C450.125 25.15 449.6 24.625 449 24.625ZM451.625 17.5V19H462.125V17.5H451.625ZM451.625 26.5H462.125V25H451.625V26.5ZM451.625 22.75H462.125V21.25H451.625V22.75Z" fill="black"/>
<path d="M476.25 22L478.5 24.25V19.75L476.25 22ZM476.25 27.25H489.75V25.75H476.25V27.25ZM476.25 18.25H489.75V16.75H476.25V18.25ZM480.75 21.25H489.75V19.75H480.75V21.25ZM480.75 24.25H489.75V22.75H480.75V24.25Z" fill="black"/>
<path d="M504.25 19.75V24.25L506.5 22L504.25 19.75ZM504.25 27.25H517.75V25.75H504.25V27.25ZM504.25 18.25H517.75V16.75H504.25V18.25ZM508.75 21.25H517.75V19.75H508.75V21.25ZM508.75 24.25H517.75V22.75H508.75V24.25Z" fill="black"/>
<path d="M542.8 22L545.5 24.7L544.45 25.75L541.75 23.05L539.05 25.75L538 24.7L540.7 22L538 19.3L539.05 18.25L541.75 20.95L544.45 18.25L545.5 19.3L542.8 22ZM548.734 27.7555L549.535 26.8956C549.682 26.7446 549.814 26.5901 549.938 26.439C550.058 26.2934 550.166 26.1387 550.262 25.9763C550.352 25.8261 550.425 25.6669 550.481 25.5012C550.535 25.34 550.562 25.1713 550.561 25.0016C550.564 24.7905 550.525 24.5811 550.446 24.385C550.373 24.2007 550.257 24.036 550.109 23.9038C549.951 23.7662 549.767 23.6624 549.568 23.599C549.09 23.4564 548.578 23.4682 548.107 23.6325C547.892 23.7138 547.696 23.8404 547.534 24.0036C547.377 24.1601 547.256 24.3481 547.178 24.5552C547.103 24.7551 547.063 24.9665 547.061 25.18L547.058 25.3577H548.213L548.218 25.1875C548.219 25.0925 548.232 24.9981 548.258 24.9066C548.283 24.8263 548.323 24.7514 548.375 24.6858C548.429 24.6255 548.495 24.5783 548.57 24.5478C548.738 24.481 548.925 24.4771 549.096 24.5368C549.158 24.5639 549.213 24.604 549.257 24.6544C549.303 24.7082 549.338 24.7701 549.36 24.8369C549.387 24.9181 549.401 25.003 549.401 25.0884C549.401 25.1556 549.393 25.2225 549.378 25.288C549.356 25.3662 549.324 25.4415 549.285 25.5122C549.227 25.6144 549.16 25.7117 549.087 25.8034C548.986 25.9344 548.879 26.0601 548.765 26.18L547.148 27.9449V28.75H550.75V27.7555H548.734Z" fill="black"/>
<path d="M570.8 22L573.5 24.7L572.45 25.75L569.75 23.05L567.05 25.75L566 24.7L568.7 22L566 19.3L567.05 18.25L569.75 20.95L572.45 18.25L573.5 19.3L570.8 22ZM577.484 19.5055L578.285 18.6456C578.432 18.4946 578.564 18.3401 578.688 18.189C578.808 18.0434 578.916 17.8887 579.012 17.7263C579.102 17.5762 579.175 17.4169 579.231 17.2512C579.285 17.09 579.312 16.9213 579.311 16.7516C579.314 16.5405 579.275 16.3311 579.196 16.135C579.123 15.9507 579.007 15.786 578.859 15.6538C578.701 15.5162 578.517 15.4124 578.318 15.349C577.84 15.2064 577.328 15.2182 576.857 15.3825C576.642 15.4638 576.446 15.5904 576.284 15.7536C576.127 15.9101 576.006 16.0981 575.928 16.3052C575.853 16.5051 575.813 16.7165 575.811 16.93L575.808 17.1077H576.963L576.968 16.9375C576.969 16.8425 576.982 16.7481 577.008 16.6566C577.033 16.5763 577.073 16.5014 577.125 16.4358C577.179 16.3755 577.245 16.3283 577.32 16.2977C577.488 16.231 577.675 16.2271 577.846 16.2868C577.908 16.3138 577.963 16.354 578.007 16.4044C578.053 16.4582 578.088 16.5201 578.11 16.5869C578.137 16.6681 578.151 16.7529 578.151 16.8384C578.151 16.9056 578.143 16.9725 578.128 17.038C578.106 17.1162 578.074 17.1915 578.035 17.2622C577.977 17.3643 577.91 17.4617 577.837 17.5534C577.736 17.6844 577.629 17.8101 577.515 17.93L575.898 19.6948V20.5H579.5V19.5055H577.484Z" fill="black"/>
<path d="M604.25 25.75H601.25C600.255 25.75 599.302 25.3549 598.598 24.6517C597.895 23.9484 597.5 22.9946 597.5 22C597.5 21.0054 597.895 20.0516 598.598 19.3483C599.302 18.6451 600.255 18.25 601.25 18.25H604.25V19.75H601.25C600.653 19.75 600.081 19.9871 599.659 20.409C599.237 20.831 599 21.4033 599 22C599 22.5967 599.237 23.169 599.659 23.591C600.081 24.0129 600.653 24.25 601.25 24.25H604.25V25.75ZM608.75 18.25H605.75V19.75H608.75C609.347 19.75 609.919 19.9871 610.341 20.409C610.763 20.831 611 21.4033 611 22C611 22.5967 610.763 23.169 610.341 23.591C609.919 24.0129 609.347 24.25 608.75 24.25H605.75V25.75H608.75C609.745 25.75 610.698 25.3549 611.402 24.6517C612.105 23.9484 612.5 22.9946 612.5 22C612.5 21.0054 612.105 20.0516 611.402 19.3483C610.698 18.6451 609.745 18.25 608.75 18.25ZM608 21.25H602V22.75H608V21.25Z" fill="black"/>
<path d="M639 17.5H633.75L632.25 16H627C626.175 16 625.5 16.675 625.5 17.5V26.5C625.5 27.325 626.175 28 627 28H639C639.825 28 640.5 27.325 640.5 26.5V19C640.5 18.175 639.825 17.5 639 17.5ZM639 26.5H627V17.5H631.65L633.15 19H639V26.5ZM637.5 25L634.65 21.25H634.5L632.325 24.1L630.75 22.075L628.5 25H637.5ZM631.5 20.125C631.5 19.525 630.975 19 630.375 19C629.775 19 629.25 19.525 629.25 20.125C629.25 20.725 629.775 21.25 630.375 21.25C630.975 21.25 631.5 20.725 631.5 20.125Z" fill="black"/>
<rect x="0.5" y="0.5" width="962" height="44" stroke="#D2D2D2"/>
</svg>
