<svg width="22" height="23" viewBox="0 0 22 23" fill="none" xmlns="http://www.w3.org/2000/svg">
<path d="M13.1614 9.0626L8.57804 13.6539C7.98927 13.0641 7.62695 12.2565 7.62695 11.3582C7.62695 9.56165 9.07623 8.10986 10.8697 8.10986C11.7664 8.10986 12.5726 8.47281 13.1614 9.0626Z" stroke="black" stroke-opacity="0.65" stroke-width="1.5" stroke-linecap="round" stroke-linejoin="round"/>
<path d="M16.1413 5.70528C14.5562 4.50755 12.7446 3.85425 10.8696 3.85425C7.6721 3.85425 4.69203 5.74157 2.61776 9.0081C1.80254 10.2875 1.80254 12.4379 2.61776 13.7173C3.33334 14.8425 4.16667 15.8134 5.07247 16.5937" stroke="black" stroke-opacity="0.65" stroke-width="1.5" stroke-linecap="round" stroke-linejoin="round"/>
<path d="M7.62695 18.1905C8.65956 18.626 9.75557 18.862 10.8697 18.862C14.0672 18.862 17.0472 16.9746 19.1215 13.7081C19.9367 12.4287 19.9367 10.2783 19.1215 8.99887C18.8226 8.52704 18.4965 8.08243 18.1614 7.66504" stroke="black" stroke-opacity="0.65" stroke-width="1.5" stroke-linecap="round" stroke-linejoin="round"/>
<path d="M14.049 11.9934C13.8135 13.2728 12.7718 14.3163 11.4946 14.5522" stroke="black" stroke-opacity="0.65" stroke-width="1.5" stroke-linecap="round" stroke-linejoin="round"/>
<path d="M8.57782 13.6538L1.81152 20.4318" stroke="black" stroke-opacity="0.65" stroke-width="1.5" stroke-linecap="round" stroke-linejoin="round"/>
<path d="M19.9274 2.28442L13.1611 9.06246" stroke="black" stroke-opacity="0.65" stroke-width="1.5" stroke-linecap="round" stroke-linejoin="round"/>
</svg>
