<svg width="16" height="16" viewBox="0 0 16 16" fill="none" xmlns="http://www.w3.org/2000/svg">
<path d="M15.291 0.709293C14.8362 0.255103 14.2196 0 13.5768 0C12.934 0 12.3174 0.255103 11.8626 0.709293L0.980247 11.5916C0.668613 11.9015 0.42152 12.2701 0.253265 12.6761C0.085009 13.0821 -0.00106921 13.5174 1.0024e-05 13.9569V15.3306C1.0024e-05 15.508 0.0705047 15.6782 0.195986 15.8037C0.321467 15.9292 0.491657 15.9997 0.669114 15.9997H2.04278C2.48223 16.0009 2.91755 15.915 3.32355 15.7468C3.72956 15.5787 4.09817 15.3317 4.40807 15.0201L15.291 4.13711C15.745 3.68225 16 3.06585 16 2.4232C16 1.78055 15.745 1.16415 15.291 0.709293ZM3.46195 14.074C3.08458 14.4488 2.5747 14.6599 2.04278 14.6615H1.33822V13.9569C1.33754 13.6932 1.38917 13.432 1.49013 13.1884C1.59108 12.9448 1.73936 12.7236 1.92636 12.5377L10.1851 4.27896L11.724 5.8179L3.46195 14.074ZM14.3443 3.191L12.6675 4.86844L11.1285 3.33285L12.806 1.65541C12.907 1.55458 13.027 1.47464 13.1589 1.42015C13.2908 1.36567 13.4322 1.33771 13.575 1.33786C13.7177 1.33802 13.859 1.36629 13.9909 1.42106C14.1227 1.47583 14.2424 1.55603 14.3433 1.65708C14.4441 1.75813 14.524 1.87805 14.5785 2.00999C14.633 2.14193 14.661 2.28331 14.6608 2.42606C14.6606 2.56881 14.6324 2.71013 14.5776 2.84195C14.5228 2.97377 14.4426 3.09352 14.3416 3.19435L14.3443 3.191Z" fill="#476EE6"/>
</svg>
