<svg width="16" height="17" viewBox="0 0 16 17" fill="none" xmlns="http://www.w3.org/2000/svg">
<mask id="path-1-inside-1_807_442" fill="white">
<path d="M10.0275 12.3931L6.18492 8.54012L10.0275 4.68718L8.84455 3.5036L3.81055 8.54012L8.84455 13.5766L10.0275 12.3931Z"/>
</mask>
<path d="M10.0275 12.3931L11.4421 13.8069C12.2221 13.0265 12.2228 11.762 11.4436 10.9807L10.0275 12.3931ZM6.18492 8.54012L4.76881 7.1278C3.99029 7.90841 3.99029 9.17182 4.76881 9.95244L6.18492 8.54012ZM10.0275 4.68718L11.4436 6.0995C12.2228 5.31828 12.2221 4.05369 11.4421 3.27332L10.0275 4.68718ZM8.84455 3.5036L10.2591 2.08974C9.88401 1.71445 9.37515 1.5036 8.84455 1.5036C8.31394 1.5036 7.80508 1.71445 7.42998 2.08974L8.84455 3.5036ZM3.81055 8.54012L2.39598 7.12626C1.6154 7.90723 1.6154 9.17301 2.39598 9.95398L3.81055 8.54012ZM8.84455 13.5766L7.42998 14.9905C7.80508 15.3658 8.31394 15.5766 8.84455 15.5766C9.37515 15.5766 9.88401 15.3658 10.2591 14.9905L8.84455 13.5766ZM11.4436 10.9807L7.60102 7.1278L4.76881 9.95244L8.61143 13.8054L11.4436 10.9807ZM7.60102 9.95244L11.4436 6.0995L8.61143 3.27487L4.76881 7.1278L7.60102 9.95244ZM11.4421 3.27332L10.2591 2.08974L7.42998 4.91746L8.61297 6.10104L11.4421 3.27332ZM7.42998 2.08974L2.39598 7.12626L5.22511 9.95398L10.2591 4.91746L7.42998 2.08974ZM2.39598 9.95398L7.42998 14.9905L10.2591 12.1628L5.22511 7.12626L2.39598 9.95398ZM10.2591 14.9905L11.4421 13.8069L8.61297 10.9792L7.42998 12.1628L10.2591 14.9905Z" fill="white" mask="url(#path-1-inside-1_807_442)"/>
</svg>
